<svg width="2056" height="476" viewBox="0 0 2056 476" fill="none" xmlns="http://www.w3.org/2000/svg">
<g clip-path="url(#clip0_723_33)">
<path d="M225.483 476C99.7042 468.602 0 364.875 0 238.001C0 111.126 99.7042 7.39825 225.483 0V476Z" fill="url(#paint0_linear_723_33)"/>
<path d="M302.517 0C428.296 7.39824 528 111.126 528 238C528 364.875 428.296 468.602 302.517 476V0Z" fill="url(#paint1_linear_723_33)"/>
<path d="M733.497 72V216.429H734.785C737.36 213 740.65 209.429 744.655 205.714C748.66 202 753.381 198.571 758.817 195.429C764.539 192.286 771.119 189.714 778.558 187.714C785.996 185.429 794.436 184.286 803.877 184.286C818.468 184.286 831.914 187.143 844.217 192.857C856.519 198.286 867.104 205.857 875.973 215.571C884.842 225.286 891.709 236.714 896.572 249.857C901.436 263 903.868 277.143 903.868 292.286C903.868 307.429 901.436 321.714 896.572 335.143C891.995 348.286 885.271 359.857 876.402 369.857C867.82 379.571 857.234 387.429 844.646 393.429C832.344 399.143 818.325 402 802.59 402C787.999 402 774.266 398.857 761.392 392.571C748.803 386.286 738.933 377.143 731.781 365.143H730.922V396H682V72H733.497ZM851.512 292.286C851.512 284.286 850.225 276.429 847.65 268.714C845.361 260.714 841.785 253.571 836.921 247.286C832.058 241 825.906 236 818.468 232.286C811.029 228.286 802.304 226.286 792.29 226.286C782.849 226.286 774.409 228.286 766.971 232.286C759.532 236.286 753.095 241.429 747.659 247.714C742.509 254 738.504 261.143 735.643 269.143C733.068 277.143 731.781 285.143 731.781 293.143C731.781 301.143 733.068 309.143 735.643 317.143C738.504 324.857 742.509 331.857 747.659 338.143C753.095 344.429 759.532 349.571 766.971 353.571C774.409 357.286 782.849 359.143 792.29 359.143C802.304 359.143 811.029 357.143 818.468 353.143C825.906 349.143 832.058 344 836.921 337.714C841.785 331.429 845.361 324.286 847.65 316.286C850.225 308.286 851.512 300.286 851.512 292.286Z" fill="#1F1F1F"/>
<path d="M954.406 72H1005.9V396H954.406V72Z" fill="#1F1F1F"/>
<path d="M1069.24 190.286H1120.73V396H1069.24V190.286ZM1061.94 120.429C1061.94 112.143 1064.94 105 1070.95 99C1077.25 92.7143 1085.11 89.5714 1094.56 89.5714C1104 89.5714 1111.86 92.5714 1118.16 98.5714C1124.74 104.286 1128.03 111.571 1128.03 120.429C1128.03 129.286 1124.74 136.714 1118.16 142.714C1111.86 148.429 1104 151.286 1094.56 151.286C1085.11 151.286 1077.25 148.286 1070.95 142.286C1064.94 136 1061.94 128.714 1061.94 120.429Z" fill="#1F1F1F"/>
<path d="M1184.07 72H1235.56V276.857H1236.85L1314.95 190.286H1381.04L1291.78 283.286L1386.62 396H1318.39L1236.85 290.571H1235.56V396H1184.07V72Z" fill="#1F1F1F"/>
<path d="M1526.57 245.143C1521.99 239.143 1515.7 234 1507.69 229.714C1499.68 225.143 1490.95 222.857 1481.51 222.857C1473.21 222.857 1465.63 224.571 1458.76 228C1451.9 231.429 1448.47 237.143 1448.47 245.143C1448.47 253.143 1452.18 258.857 1459.62 262.286C1467.35 265.429 1478.51 268.714 1493.1 272.143C1500.82 273.857 1508.55 276.143 1516.27 279C1524.28 281.857 1531.43 285.714 1537.73 290.571C1544.31 295.143 1549.6 301 1553.61 308.143C1557.61 315 1559.61 323.429 1559.61 333.429C1559.61 346 1557.18 356.714 1552.32 365.571C1547.74 374.143 1541.45 381.143 1533.44 386.571C1525.71 392 1516.56 395.857 1505.97 398.143C1495.67 400.714 1484.94 402 1473.79 402C1457.76 402 1442.17 399.143 1427.01 393.429C1411.85 387.429 1399.26 379 1389.24 368.143L1423.15 336.429C1428.87 343.857 1436.31 350 1445.46 354.857C1454.62 359.714 1464.77 362.143 1475.93 362.143C1479.65 362.143 1483.37 361.714 1487.09 360.857C1491.09 360 1494.67 358.714 1497.82 357C1501.25 355 1503.97 352.429 1505.97 349.286C1507.97 346.143 1508.97 342.286 1508.97 337.714C1508.97 329.143 1504.97 323 1496.96 319.286C1489.23 315.571 1477.5 311.857 1461.77 308.143C1454.04 306.429 1446.46 304.286 1439.02 301.714C1431.87 298.857 1425.43 295.286 1419.71 291C1413.99 286.429 1409.41 280.857 1405.98 274.286C1402.55 267.714 1400.83 259.571 1400.83 249.857C1400.83 238.429 1403.12 228.571 1407.7 220.286C1412.56 212 1418.85 205.286 1426.58 200.143C1434.3 194.714 1443.03 190.714 1452.76 188.143C1462.48 185.571 1472.5 184.286 1482.8 184.286C1497.67 184.286 1512.12 186.857 1526.14 192C1540.45 197.143 1551.75 205 1560.04 215.571L1526.57 245.143Z" fill="#1F1F1F"/>
<path d="M1592.37 292.286C1592.37 276 1595.23 261.286 1600.96 248.143C1606.96 234.714 1614.97 223.286 1624.99 213.857C1635 204.429 1646.87 197.143 1660.61 192C1674.34 186.857 1688.93 184.286 1704.38 184.286C1719.83 184.286 1734.42 186.857 1748.15 192C1761.89 197.143 1773.76 204.429 1783.77 213.857C1793.78 223.286 1801.65 234.714 1807.37 248.143C1813.38 261.286 1816.39 276 1816.39 292.286C1816.39 308.571 1813.38 323.429 1807.37 336.857C1801.65 350.286 1793.78 361.857 1783.77 371.571C1773.76 381 1761.89 388.429 1748.15 393.857C1734.42 399.286 1719.83 402 1704.38 402C1688.93 402 1674.34 399.286 1660.61 393.857C1646.87 388.429 1635 381 1624.99 371.571C1614.97 361.857 1606.96 350.286 1600.96 336.857C1595.23 323.429 1592.37 308.571 1592.37 292.286ZM1644.73 292.286C1644.73 300.286 1645.87 308.286 1648.16 316.286C1650.74 324.286 1654.46 331.429 1659.32 337.714C1664.18 344 1670.33 349.143 1677.77 353.143C1685.21 357.143 1694.08 359.143 1704.38 359.143C1714.68 359.143 1723.55 357.143 1730.99 353.143C1738.43 349.143 1744.58 344 1749.44 337.714C1754.3 331.429 1757.88 324.286 1760.17 316.286C1762.74 308.286 1764.03 300.286 1764.03 292.286C1764.03 284.286 1762.74 276.429 1760.17 268.714C1757.88 260.714 1754.3 253.571 1749.44 247.286C1744.58 241 1738.43 236 1730.99 232.286C1723.55 228.286 1714.68 226.286 1704.38 226.286C1694.08 226.286 1685.21 228.286 1677.77 232.286C1670.33 236 1664.18 241 1659.32 247.286C1654.46 253.571 1650.74 260.714 1648.16 268.714C1645.87 276.429 1644.73 284.286 1644.73 292.286Z" fill="#1F1F1F"/>
<path d="M1866.32 190.286H1915.24V223.286H1916.1C1920.68 213 1928.54 204 1939.7 196.286C1951.15 188.286 1964.59 184.286 1980.04 184.286C1993.49 184.286 2004.93 186.714 2014.37 191.571C2024.1 196.143 2031.97 202.286 2037.98 210C2044.27 217.714 2048.85 226.571 2051.71 236.571C2054.57 246.571 2056 256.857 2056 267.429V396H2004.5V282C2004.5 276 2004.07 269.714 2003.22 263.143C2002.36 256.571 2000.5 250.714 1997.64 245.571C1994.78 240.143 1990.77 235.714 1985.62 232.286C1980.76 228.857 1974.18 227.143 1965.88 227.143C1957.58 227.143 1950.43 228.857 1944.42 232.286C1938.41 235.429 1933.41 239.571 1929.4 244.714C1925.68 249.857 1922.82 255.857 1920.82 262.714C1918.82 269.286 1917.82 276 1917.82 282.857V396H1866.32V190.286Z" fill="#1F1F1F"/>
</g>
<defs>
<linearGradient id="paint0_linear_723_33" x1="264" y1="0" x2="264" y2="1285" gradientUnits="userSpaceOnUse">
<stop stop-color="#00B268"/>
<stop offset="0.63201" stop-color="#004C2C"/>
</linearGradient>
<linearGradient id="paint1_linear_723_33" x1="264" y1="0" x2="264" y2="1285" gradientUnits="userSpaceOnUse">
<stop stop-color="#00B268"/>
<stop offset="0.63201" stop-color="#004C2C"/>
</linearGradient>
<clipPath id="clip0_723_33">
<rect width="2056" height="476" fill="white"/>
</clipPath>
</defs>
</svg>
